<svg width="199" height="306" viewBox="0 0 199 306" fill="none" xmlns="http://www.w3.org/2000/svg">
<ellipse cx="48.5" cy="48.5" rx="48.5" ry="48.5" transform="matrix(-1 0 0 1 150 209)" fill="#2B305E"/>
<ellipse cx="48.5" cy="48.5" rx="48.5" ry="48.5" transform="matrix(-1 0 0 1 199 97)" fill="#2B305E"/>
<ellipse cx="48.5" cy="48.5" rx="48.5" ry="48.5" transform="matrix(-1 0 0 1 42 97)" fill="#DBB968"/>
<path d="M-17 232.5C-17 259.286 4.71414 281 31.5 281C58.2858 281 79.9999 259.286 79.9999 232.5C79.9999 205.714 58.2858 184 31.5 184C4.71414 184 -17 205.714 -17 232.5Z" fill="#C9D6EA"/>
<circle cx="12.5" cy="12.5" r="12.5" transform="matrix(-1 0 0 1 18.0001 0)" fill="#DBB968"/>
</svg>
